<?xml version="1.0" encoding="UTF-8" standalone="no"?>
<svg
   xmlns:dc="http://purl.org/dc/elements/1.1/"
   xmlns:cc="http://creativecommons.org/ns#"
   xmlns:rdf="http://www.w3.org/1999/02/22-rdf-syntax-ns#"
   xmlns:svg="http://www.w3.org/2000/svg"
   xmlns="http://www.w3.org/2000/svg"
   xmlns:sodipodi="http://sodipodi.sourceforge.net/DTD/sodipodi-0.dtd"
   xmlns:inkscape="http://www.inkscape.org/namespaces/inkscape"
   viewBox="0 0 650 400"
   version="1.1"
   id="svg17"
   sodipodi:docname="convex_example.svg"
   inkscape:version="1.0.2 (1.0.2+r75+1)">
  <metadata
     id="metadata23">
    <rdf:RDF>
      <cc:Work
         rdf:about="">
        <dc:format>image/svg+xml</dc:format>
        <dc:type
           rdf:resource="http://purl.org/dc/dcmitype/StillImage" />
        <dc:title></dc:title>
      </cc:Work>
    </rdf:RDF>
  </metadata>
  <defs
     id="defs21" />
  <sodipodi:namedview
     pagecolor="#ffffff"
     bordercolor="#666666"
     borderopacity="1"
     objecttolerance="10"
     gridtolerance="10"
     guidetolerance="10"
     inkscape:pageopacity="0"
     inkscape:pageshadow="2"
     inkscape:window-width="1848"
     inkscape:window-height="1016"
     id="namedview19"
     showgrid="false"
     inkscape:zoom="1.4305314"
     inkscape:cx="378.83794"
     inkscape:cy="177.95865"
     inkscape:window-x="72"
     inkscape:window-y="27"
     inkscape:window-maximized="1"
     inkscape:current-layer="svg17"
     inkscape:document-rotation="0" />
  <clipPath
     id="box">
    <rect
       x="0"
       y="0"
       width="650"
       height="400"
       style="fill:none;stroke:none;"
       id="rect2" />
  </clipPath>
  <g
     clip-path="url(#box)"
     id="g15">
    <rect
       x="0.00"
       y="0.00"
       width="650.00"
       height="400.00"
       style="fill:#FFFFFF;stroke:none;"
       id="rect5" />
    <path
       d="M328.66 0.00 L328.66 400.00 "
       style="fill:none;stroke:#000000;stroke-width:1;"
       id="path7" />
    <path
       d="M0.00 309.51 L650.00 309.51 "
       style="fill:none;stroke:#000000;stroke-width:1;"
       id="path9" />
    <path
       d="M266.93 -0.01 L266.93 0.00 L267.05 1.00 L267.18 2.00 L267.30 3.00 L267.43 4.00 L267.55 4.99 L267.68 5.99 L267.80 6.99 L267.93 7.99 L268.06 8.99 L268.18 9.99 L268.31 10.98 L268.44 11.98 L268.56 12.98 L268.69 13.98 L268.82 14.98 L268.94 15.98 L269.07 16.98 L269.20 17.97 L269.33 18.97 L269.46 19.97 L269.58 20.97 L269.71 21.97 L269.84 22.97 L269.97 23.96 L270.10 24.96 L270.23 25.96 L270.36 26.96 L270.49 27.96 L270.62 28.96 L270.75 29.95 L270.88 30.95 L271.01 31.95 L271.14 32.95 L271.27 33.95 L271.40 34.95 L271.54 35.94 L271.67 36.94 L271.80 37.94 L271.93 38.94 L272.06 39.94 L272.20 40.94 L272.33 41.93 L272.46 42.93 L272.60 43.93 L272.73 44.93 L272.86 45.93 L273.00 46.92 L273.13 47.92 L273.27 48.92 L273.40 49.92 L273.54 50.92 L273.67 51.92 L273.81 52.91 L273.94 53.91 L274.08 54.91 L274.22 55.91 L274.35 56.91 L274.49 57.91 L274.63 58.90 L274.76 59.90 L274.90 60.90 L275.04 61.90 L275.18 62.90 L275.32 63.89 L275.45 64.89 L275.59 65.89 L275.73 66.89 L275.87 67.89 L276.01 68.88 L276.15 69.88 L276.29 70.88 L276.43 71.88 L276.57 72.88 L276.71 73.88 L276.85 74.87 L277.00 75.87 L277.14 76.87 L277.28 77.87 L277.42 78.87 L277.56 79.86 L277.71 80.86 L277.85 81.86 L277.99 82.86 L278.14 83.86 L278.28 84.85 L278.43 85.85 L278.57 86.85 L278.72 87.85 L278.86 88.85 L279.01 89.84 L279.15 90.84 L279.30 91.84 L279.45 92.84 L279.59 93.83 L279.74 94.83 L279.89 95.83 L280.03 96.83 L280.18 97.83 L280.33 98.82 L280.48 99.82 L280.63 100.82 L280.78 101.82 L280.93 102.82 L281.08 103.81 L281.23 104.81 L281.38 105.81 L281.53 106.81 L281.68 107.80 L281.83 108.80 L281.98 109.80 L282.14 110.80 L282.29 111.80 L282.44 112.79 L282.60 113.79 L282.75 114.79 L282.90 115.79 L283.06 116.78 L283.21 117.78 L283.37 118.78 L283.52 119.78 L283.68 120.77 L283.84 121.77 L283.99 122.77 L284.15 123.77 L284.31 124.76 L284.46 125.76 L284.62 126.76 L284.78 127.76 L284.94 128.75 L285.10 129.75 L285.26 130.75 L285.42 131.75 L285.58 132.74 L285.74 133.74 L285.90 134.74 L286.06 135.74 L286.23 136.73 L286.39 137.73 L286.55 138.73 L286.71 139.73 L286.88 140.72 L287.04 141.72 L287.21 142.72 L287.37 143.72 L287.54 144.71 L287.70 145.71 L287.87 146.71 L288.04 147.71 L288.20 148.70 L288.37 149.70 L288.54 150.70 L288.71 151.69 L288.88 152.69 L289.05 153.69 L289.22 154.69 L289.39 155.68 L289.56 156.68 L289.73 157.68 L289.90 158.67 L290.08 159.67 L290.25 160.67 L290.42 161.67 L290.60 162.66 L290.77 163.66 L290.95 164.66 L291.12 165.65 L291.30 166.65 L291.48 167.65 L291.65 168.64 L291.83 169.64 L292.01 170.64 L292.19 171.64 L292.37 172.63 L292.55 173.63 L292.73 174.63 L292.91 175.62 L293.09 176.62 L293.27 177.62 L293.46 178.61 L293.64 179.61 L293.83 180.61 L294.01 181.60 L294.20 182.60 L294.38 183.60 L294.57 184.59 L294.76 185.59 L294.94 186.59 L295.13 187.58 L295.32 188.58 L295.51 189.58 L295.70 190.57 L295.89 191.57 L296.09 192.57 L296.28 193.56 L296.47 194.56 L296.67 195.55 L296.86 196.55 L297.06 197.55 L297.25 198.54 L297.45 199.54 L297.65 200.54 L297.85 201.53 L298.04 202.53 L298.24 203.52 L298.45 204.52 L298.65 205.52 L298.85 206.51 L299.05 207.51 L299.26 208.50 L299.46 209.50 L299.67 210.50 L299.87 211.49 L300.08 212.49 L300.29 213.48 L300.50 214.48 L300.71 215.47 L300.92 216.47 L301.13 217.47 L301.34 218.46 L301.56 219.46 L301.77 220.45 L301.99 221.45 L302.21 222.44 L302.42 223.44 L302.64 224.43 L302.86 225.43 L303.08 226.42 L303.30 227.42 L303.53 228.41 L303.75 229.41 L303.98 230.41 L304.20 231.40 L304.43 232.40 L304.66 233.39 L304.89 234.38 L305.12 235.38 L305.35 236.37 L305.58 237.37 L305.82 238.36 L306.05 239.36 L306.29 240.35 L306.53 241.35 L306.77 242.34 L307.01 243.34 L307.25 244.33 L307.50 245.32 L307.74 246.32 L307.99 247.31 L308.24 248.31 L308.49 249.30 L308.74 250.29 L308.99 251.29 L309.24 252.28 L309.50 253.28 L309.76 254.27 L310.02 255.26 L310.28 256.26 L310.54 257.25 L310.80 258.24 L311.07 259.24 L311.34 260.23 L311.61 261.22 L311.88 262.21 L312.15 263.21 L312.43 264.20 L312.71 265.19 L312.99 266.18 L313.27 267.18 L313.55 268.17 L313.84 269.16 L314.13 270.15 L314.42 271.14 L314.72 272.14 L315.01 273.13 L315.31 274.12 L315.61 275.11 L315.92 276.10 L316.22 277.09 L316.53 278.08 L316.84 279.07 L317.16 280.06 L317.48 281.05 L317.80 282.04 L318.13 283.03 L318.45 284.02 L318.79 285.01 L319.12 286.00 L319.46 286.99 L319.80 287.98 L320.15 288.97 L320.50 289.95 L320.86 290.94 L321.22 291.93 L321.58 292.92 L321.95 293.90 L322.33 294.89 L322.70 295.88 L323.09 296.86 L323.48 297.85 L323.88 298.83 L324.28 299.82 L324.69 300.80 L325.10 301.78 L325.52 302.77 L325.95 303.75 L326.39 304.73 L326.84 305.71 L327.29 306.69 L327.76 307.67 L328.23 308.65 L328.71 309.63 L329.21 310.60 L329.72 311.58 L330.24 312.55 L330.77 313.52 L331.32 314.49 L331.89 315.46 L332.47 316.43 L333.08 317.40 L333.70 318.36 L334.35 319.32 L335.03 320.27 L335.74 321.23 L336.48 322.17 L337.27 323.11 L338.10 324.05 L339.00 324.97 L339.97 325.88 L341.03 326.78 L342.21 327.65 L343.57 328.48 L345.21 329.24 L347.21 329.81 L349.21 329.99 L351.21 329.78 L353.21 329.18 L355.21 328.19 L357.21 326.81 L358.66 325.56 L359.82 324.42 L360.84 323.31 L361.75 322.22 L362.59 321.15 L363.38 320.09 L364.12 319.03 L364.82 317.98 L365.49 316.94 L366.13 315.90 L366.74 314.86 L367.33 313.82 L367.91 312.79 L368.46 311.76 L369.00 310.73 L369.52 309.71 L370.03 308.68 L370.53 307.66 L371.01 306.63 L371.48 305.61 L371.95 304.59 L372.40 303.57 L372.84 302.55 L373.28 301.53 L373.71 300.51 L374.13 299.50 L374.54 298.48 L374.95 297.46 L375.35 296.45 L375.74 295.43 L376.13 294.42 L376.51 293.40 L376.89 292.39 L377.26 291.37 L377.63 290.36 L377.99 289.35 L378.35 288.34 L378.70 287.32 L379.05 286.31 L379.39 285.30 L379.73 284.29 L380.07 283.28 L380.40 282.27 L380.73 281.26 L381.06 280.25 L381.38 279.24 L381.70 278.23 L382.01 277.22 L382.33 276.21 L382.64 275.20 L382.94 274.19 L383.25 273.18 L383.55 272.17 L383.85 271.16 L384.14 270.15 L384.44 269.14 L384.73 268.14 L385.02 267.13 L385.31 266.12 L385.59 265.11 L385.87 264.10 L386.15 263.10 L386.43 262.09 L386.70 261.08 L386.98 260.07 L387.25 259.07 L387.52 258.06 L387.79 257.05 L388.05 256.05 L388.32 255.04 L388.58 254.03 L388.84 253.02 L389.10 252.02 L389.36 251.01 L389.61 250.01 L389.86 249.00 L390.12 247.99 L390.37 246.99 L390.62 245.98 L390.86 244.97 L391.11 243.97 L391.36 242.96 L391.60 241.96 L391.84 240.95 L392.08 239.95 L392.32 238.94 L392.56 237.93 L392.79 236.93 L393.03 235.92 L393.26 234.92 L393.50 233.91 L393.73 232.91 L393.96 231.90 L394.19 230.90 L394.41 229.89 L394.64 228.89 L394.87 227.88 L395.09 226.88 L395.31 225.87 L395.54 224.87 L395.76 223.86 L395.98 222.86 L396.20 221.85 L396.42 220.85 L396.63 219.84 L396.85 218.84 L397.06 217.83 L397.28 216.83 L397.49 215.83 L397.70 214.82 L397.91 213.82 L398.13 212.81 L398.33 211.81 L398.54 210.80 L398.75 209.80 L398.96 208.80 L399.16 207.79 L399.37 206.79 L399.57 205.78 L399.78 204.78 L399.98 203.78 L400.18 202.77 L400.38 201.77 L400.58 200.76 L400.78 199.76 L400.98 198.76 L401.18 197.75 L401.38 196.75 L401.57 195.74 L401.77 194.74 L401.96 193.74 L402.16 192.73 L402.35 191.73 L402.54 190.73 L402.74 189.72 L402.93 188.72 L403.12 187.72 L403.31 186.71 L403.50 185.71 L403.69 184.70 L403.87 183.70 L404.06 182.70 L404.25 181.69 L404.43 180.69 L404.62 179.69 L404.80 178.68 L404.99 177.68 L405.17 176.68 L405.35 175.67 L405.54 174.67 L405.72 173.67 L405.90 172.66 L406.08 171.66 L406.26 170.66 L406.44 169.66 L406.62 168.65 L406.80 167.65 L406.98 166.65 L407.15 165.64 L407.33 164.64 L407.51 163.64 L407.68 162.63 L407.86 161.63 L408.03 160.63 L408.21 159.62 L408.38 158.62 L408.55 157.62 L408.73 156.62 L408.90 155.61 L409.07 154.61 L409.24 153.61 L409.41 152.60 L409.58 151.60 L409.75 150.60 L409.92 149.60 L410.09 148.59 L410.26 147.59 L410.42 146.59 L410.59 145.59 L410.76 144.58 L410.93 143.58 L411.09 142.58 L411.26 141.57 L411.42 140.57 L411.59 139.57 L411.75 138.57 L411.91 137.56 L412.08 136.56 L412.24 135.56 L412.40 134.56 L412.56 133.55 L412.73 132.55 L412.89 131.55 L413.05 130.55 L413.21 129.54 L413.37 128.54 L413.53 127.54 L413.69 126.54 L413.85 125.53 L414.01 124.53 L414.16 123.53 L414.32 122.53 L414.48 121.52 L414.64 120.52 L414.79 119.52 L414.95 118.52 L415.10 117.51 L415.26 116.51 L415.41 115.51 L415.57 114.51 L415.72 113.50 L415.88 112.50 L416.03 111.50 L416.18 110.50 L416.34 109.50 L416.49 108.49 L416.64 107.49 L416.79 106.49 L416.94 105.49 L417.10 104.48 L417.25 103.48 L417.40 102.48 L417.55 101.48 L417.70 100.48 L417.85 99.47 L418.00 98.47 L418.15 97.47 L418.29 96.47 L418.44 95.46 L418.59 94.46 L418.74 93.46 L418.88 92.46 L419.03 91.46 L419.18 90.45 L419.32 89.45 L419.47 88.45 L419.62 87.45 L419.76 86.45 L419.91 85.44 L420.05 84.44 L420.20 83.44 L420.34 82.44 L420.48 81.44 L420.63 80.43 L420.77 79.43 L420.91 78.43 L421.06 77.43 L421.20 76.43 L421.34 75.42 L421.48 74.42 L421.63 73.42 L421.77 72.42 L421.91 71.42 L422.05 70.41 L422.19 69.41 L422.33 68.41 L422.47 67.41 L422.61 66.41 L422.75 65.40 L422.89 64.40 L423.03 63.40 L423.17 62.40 L423.30 61.40 L423.44 60.39 L423.58 59.39 L423.72 58.39 L423.86 57.39 L423.99 56.39 L424.13 55.39 L424.27 54.38 L424.40 53.38 L424.54 52.38 L424.68 51.38 L424.81 50.38 L424.95 49.37 L425.08 48.37 L425.22 47.37 L425.35 46.37 L425.49 45.37 L425.62 44.37 L425.75 43.36 L425.89 42.36 L426.02 41.36 L426.15 40.36 L426.29 39.36 L426.42 38.36 L426.55 37.35 L426.69 36.35 L426.82 35.35 L426.95 34.35 L427.08 33.35 L427.21 32.34 L427.34 31.34 L427.48 30.34 L427.61 29.34 L427.74 28.34 L427.87 27.34 L428.00 26.33 L428.13 25.33 L428.26 24.33 L428.39 23.33 L428.52 22.33 L428.64 21.33 L428.77 20.33 L428.90 19.32 L429.03 18.32 L429.16 17.32 L429.29 16.32 L429.42 15.32 L429.54 14.32 L429.67 13.31 L429.80 12.31 L429.92 11.31 L430.05 10.31 L430.18 9.31 L430.30 8.31 L430.43 7.30 L430.56 6.30 L430.68 5.30 L430.81 4.30 L430.93 3.30 L431.06 2.30 L431.18 1.30 L431.31 0.29 L431.43 -0.71 "
       style="fill:none;stroke:#000000;stroke-width:1;"
       id="path11" />
    <path
       d="M225.97 -0.01 L225.97 0.00 L226.09 1.00 L226.22 2.00 L226.34 3.00 L226.47 4.00 L226.59 4.99 L226.72 5.99 L226.84 6.99 L226.97 7.99 L227.10 8.99 L227.22 9.99 L227.35 10.98 L227.48 11.98 L227.60 12.98 L227.73 13.98 L227.86 14.98 L227.98 15.98 L228.11 16.98 L228.24 17.97 L228.37 18.97 L228.50 19.97 L228.62 20.97 L228.75 21.97 L228.88 22.97 L229.01 23.96 L229.14 24.96 L229.27 25.96 L229.40 26.96 L229.53 27.96 L229.66 28.96 L229.79 29.95 L229.92 30.95 L230.05 31.95 L230.18 32.95 L230.31 33.95 L230.44 34.95 L230.58 35.94 L230.71 36.94 L230.84 37.94 L230.97 38.94 L231.10 39.94 L231.24 40.94 L231.37 41.93 L231.50 42.93 L231.64 43.93 L231.77 44.93 L231.90 45.93 L232.04 46.92 L232.17 47.92 L232.31 48.92 L232.44 49.92 L232.58 50.92 L232.71 51.92 L232.85 52.91 L232.98 53.91 L233.12 54.91 L233.26 55.91 L233.39 56.91 L233.53 57.91 L233.67 58.90 L233.80 59.90 L233.94 60.90 L234.08 61.90 L234.22 62.90 L234.36 63.89 L234.49 64.89 L234.63 65.89 L234.77 66.89 L234.91 67.89 L235.05 68.88 L235.19 69.88 L235.33 70.88 L235.47 71.88 L235.61 72.88 L235.75 73.88 L235.89 74.87 L236.04 75.87 L236.18 76.87 L236.32 77.87 L236.46 78.87 L236.60 79.86 L236.75 80.86 L236.89 81.86 L237.03 82.86 L237.18 83.86 L237.32 84.85 L237.47 85.85 L237.61 86.85 L237.76 87.85 L237.90 88.85 L238.05 89.84 L238.19 90.84 L238.34 91.84 L238.49 92.84 L238.63 93.83 L238.78 94.83 L238.93 95.83 L239.07 96.83 L239.22 97.83 L239.37 98.82 L239.52 99.82 L239.67 100.82 L239.82 101.82 L239.97 102.82 L240.12 103.81 L240.27 104.81 L240.42 105.81 L240.57 106.81 L240.72 107.80 L240.87 108.80 L241.02 109.80 L241.18 110.80 L241.33 111.80 L241.48 112.79 L241.64 113.79 L241.79 114.79 L241.94 115.79 L242.10 116.78 L242.25 117.78 L242.41 118.78 L242.56 119.78 L242.72 120.77 L242.88 121.77 L243.03 122.77 L243.19 123.77 L243.35 124.76 L243.50 125.76 L243.66 126.76 L243.82 127.76 L243.98 128.75 L244.14 129.75 L244.30 130.75 L244.46 131.75 L244.62 132.74 L244.78 133.74 L244.94 134.74 L245.10 135.74 L245.27 136.73 L245.43 137.73 L245.59 138.73 L245.75 139.73 L245.92 140.72 L246.08 141.72 L246.25 142.72 L246.41 143.72 L246.58 144.71 L246.74 145.71 L246.91 146.71 L247.08 147.71 L247.24 148.70 L247.41 149.70 L247.58 150.70 L247.75 151.69 L247.92 152.69 L248.09 153.69 L248.26 154.69 L248.43 155.68 L248.60 156.68 L248.77 157.68 L248.94 158.67 L249.12 159.67 L249.29 160.67 L249.46 161.67 L249.64 162.66 L249.81 163.66 L249.99 164.66 L250.16 165.65 L250.34 166.65 L250.52 167.65 L250.69 168.64 L250.87 169.64 L251.05 170.64 L251.23 171.64 L251.41 172.63 L251.59 173.63 L251.77 174.63 L251.95 175.62 L252.13 176.62 L252.31 177.62 L252.50 178.61 L252.68 179.61 L252.87 180.61 L253.05 181.60 L253.24 182.60 L253.42 183.60 L253.61 184.59 L253.80 185.59 L253.98 186.59 L254.17 187.58 L254.36 188.58 L254.55 189.58 L254.74 190.57 L254.93 191.57 L255.13 192.57 L255.32 193.56 L255.51 194.56 L255.71 195.55 L255.90 196.55 L256.10 197.55 L256.29 198.54 L256.49 199.54 L256.69 200.54 L256.89 201.53 L257.08 202.53 L257.28 203.52 L257.49 204.52 L257.69 205.52 L257.89 206.51 L258.09 207.51 L258.30 208.50 L258.50 209.50 L258.71 210.50 L258.91 211.49 L259.12 212.49 L259.33 213.48 L259.54 214.48 L259.75 215.47 L259.96 216.47 L260.17 217.47 L260.38 218.46 L260.60 219.46 L260.81 220.45 L261.03 221.45 L261.25 222.44 L261.46 223.44 L261.68 224.43 L261.90 225.43 L262.12 226.42 L262.34 227.42 L262.57 228.41 L262.79 229.41 L263.02 230.41 L263.24 231.40 L263.47 232.40 L263.70 233.39 L263.93 234.38 L264.16 235.38 L264.39 236.37 L264.62 237.37 L264.86 238.36 L265.09 239.36 L265.33 240.35 L265.57 241.35 L265.81 242.34 L266.05 243.34 L266.29 244.33 L266.54 245.32 L266.78 246.32 L267.03 247.31 L267.28 248.31 L267.53 249.30 L267.78 250.29 L268.03 251.29 L268.28 252.28 L268.54 253.28 L268.80 254.27 L269.06 255.26 L269.32 256.26 L269.58 257.25 L269.84 258.24 L270.11 259.24 L270.38 260.23 L270.65 261.22 L270.92 262.21 L271.19 263.21 L271.47 264.20 L271.75 265.19 L272.03 266.18 L272.31 267.18 L272.59 268.17 L272.88 269.16 L273.17 270.15 L273.46 271.14 L273.76 272.14 L274.05 273.13 L274.35 274.12 L274.65 275.11 L274.96 276.10 L275.26 277.09 L275.57 278.08 L275.88 279.07 L276.20 280.06 L276.52 281.05 L276.84 282.04 L277.17 283.03 L277.49 284.02 L277.83 285.01 L278.16 286.00 L278.50 286.99 L278.84 287.98 L279.19 288.97 L279.54 289.95 L279.90 290.94 L280.26 291.93 L280.62 292.92 L280.99 293.90 L281.37 294.89 L281.74 295.88 L282.13 296.86 L282.52 297.85 L282.92 298.83 L283.32 299.82 L283.73 300.80 L284.14 301.78 L284.56 302.77 L284.99 303.75 L285.43 304.73 L285.88 305.71 L286.33 306.69 L286.80 307.67 L287.27 308.65 L287.75 309.63 L288.25 310.60 L288.76 311.58 L289.28 312.55 L289.81 313.52 L290.36 314.49 L290.93 315.46 L291.51 316.43 L292.12 317.40 L292.74 318.36 L293.39 319.32 L294.07 320.27 L294.78 321.23 L295.52 322.17 L296.31 323.11 L297.14 324.05 L298.04 324.97 L299.01 325.88 L300.07 326.78 L301.25 327.65 L302.61 328.48 L304.25 329.24 L306.25 329.81 L308.25 329.99 L310.25 329.78 L312.25 329.18 L314.25 328.19 L316.25 326.81 L317.70 325.56 L318.86 324.42 L319.88 323.31 L320.79 322.22 L321.63 321.15 L322.42 320.09 L323.16 319.03 L323.86 317.98 L324.53 316.94 L325.17 315.90 L325.78 314.86 L326.37 313.82 L326.95 312.79 L327.50 311.76 L328.04 310.73 L328.56 309.71 L329.07 308.68 L329.57 307.66 L330.05 306.63 L330.52 305.61 L330.99 304.59 L331.44 303.57 L331.88 302.55 L332.32 301.53 L332.75 300.51 L333.17 299.50 L333.58 298.48 L333.99 297.46 L334.39 296.45 L334.78 295.43 L335.17 294.42 L335.55 293.40 L335.93 292.39 L336.30 291.37 L336.67 290.36 L337.03 289.35 L337.39 288.34 L337.74 287.32 L338.09 286.31 L338.43 285.30 L338.77 284.29 L339.11 283.28 L339.44 282.27 L339.77 281.26 L340.10 280.25 L340.42 279.24 L340.74 278.23 L341.05 277.22 L341.37 276.21 L341.68 275.20 L341.98 274.19 L342.29 273.18 L342.59 272.17 L342.89 271.16 L343.18 270.15 L343.48 269.14 L343.77 268.14 L344.06 267.13 L344.35 266.12 L344.63 265.11 L344.91 264.10 L345.19 263.10 L345.47 262.09 L345.74 261.08 L346.02 260.07 L346.29 259.07 L346.56 258.06 L346.83 257.05 L347.09 256.05 L347.36 255.04 L347.62 254.03 L347.88 253.02 L348.14 252.02 L348.40 251.01 L348.65 250.01 L348.90 249.00 L349.16 247.99 L349.41 246.99 L349.66 245.98 L349.90 244.97 L350.15 243.97 L350.40 242.96 L350.64 241.96 L350.88 240.95 L351.12 239.95 L351.36 238.94 L351.60 237.93 L351.83 236.93 L352.07 235.92 L352.30 234.92 L352.54 233.91 L352.77 232.91 L353.00 231.90 L353.23 230.90 L353.45 229.89 L353.68 228.89 L353.91 227.88 L354.13 226.88 L354.35 225.87 L354.58 224.87 L354.80 223.86 L355.02 222.86 L355.24 221.85 L355.46 220.85 L355.67 219.84 L355.89 218.84 L356.10 217.83 L356.32 216.83 L356.53 215.83 L356.74 214.82 L356.95 213.82 L357.17 212.81 L357.37 211.81 L357.58 210.80 L357.79 209.80 L358.00 208.80 L358.20 207.79 L358.41 206.79 L358.61 205.78 L358.82 204.78 L359.02 203.78 L359.22 202.77 L359.42 201.77 L359.62 200.76 L359.82 199.76 L360.02 198.76 L360.22 197.75 L360.42 196.75 L360.61 195.74 L360.81 194.74 L361.00 193.74 L361.20 192.73 L361.39 191.73 L361.58 190.73 L361.78 189.72 L361.97 188.72 L362.16 187.72 L362.35 186.71 L362.54 185.71 L362.73 184.70 L362.91 183.70 L363.10 182.70 L363.29 181.69 L363.47 180.69 L363.66 179.69 L363.84 178.68 L364.03 177.68 L364.21 176.68 L364.39 175.67 L364.58 174.67 L364.76 173.67 L364.94 172.66 L365.12 171.66 L365.30 170.66 L365.48 169.66 L365.66 168.65 L365.84 167.65 L366.02 166.65 L366.19 165.64 L366.37 164.64 L366.55 163.64 L366.72 162.63 L366.90 161.63 L367.07 160.63 L367.25 159.62 L367.42 158.62 L367.59 157.62 L367.77 156.62 L367.94 155.61 L368.11 154.61 L368.28 153.61 L368.45 152.60 L368.62 151.60 L368.79 150.60 L368.96 149.60 L369.13 148.59 L369.30 147.59 L369.46 146.59 L369.63 145.59 L369.80 144.58 L369.97 143.58 L370.13 142.58 L370.30 141.57 L370.46 140.57 L370.63 139.57 L370.79 138.57 L370.95 137.56 L371.12 136.56 L371.28 135.56 L371.44 134.56 L371.60 133.55 L371.77 132.55 L371.93 131.55 L372.09 130.55 L372.25 129.54 L372.41 128.54 L372.57 127.54 L372.73 126.54 L372.89 125.53 L373.05 124.53 L373.20 123.53 L373.36 122.53 L373.52 121.52 L373.68 120.52 L373.83 119.52 L373.99 118.52 L374.14 117.51 L374.30 116.51 L374.45 115.51 L374.61 114.51 L374.76 113.50 L374.92 112.50 L375.07 111.50 L375.22 110.50 L375.38 109.50 L375.53 108.49 L375.68 107.49 L375.83 106.49 L375.98 105.49 L376.14 104.48 L376.29 103.48 L376.44 102.48 L376.59 101.48 L376.74 100.48 L376.89 99.47 L377.04 98.47 L377.19 97.47 L377.33 96.47 L377.48 95.46 L377.63 94.46 L377.78 93.46 L377.92 92.46 L378.07 91.46 L378.22 90.45 L378.36 89.45 L378.51 88.45 L378.66 87.45 L378.80 86.45 L378.95 85.44 L379.09 84.44 L379.24 83.44 L379.38 82.44 L379.52 81.44 L379.67 80.43 L379.81 79.43 L379.95 78.43 L380.10 77.43 L380.24 76.43 L380.38 75.42 L380.52 74.42 L380.67 73.42 L380.81 72.42 L380.95 71.42 L381.09 70.41 L381.23 69.41 L381.37 68.41 L381.51 67.41 L381.65 66.41 L381.79 65.40 L381.93 64.40 L382.07 63.40 L382.21 62.40 L382.34 61.40 L382.48 60.39 L382.62 59.39 L382.76 58.39 L382.90 57.39 L383.03 56.39 L383.17 55.39 L383.31 54.38 L383.44 53.38 L383.58 52.38 L383.72 51.38 L383.85 50.38 L383.99 49.37 L384.12 48.37 L384.26 47.37 L384.39 46.37 L384.53 45.37 L384.66 44.37 L384.79 43.36 L384.93 42.36 L385.06 41.36 L385.19 40.36 L385.33 39.36 L385.46 38.36 L385.59 37.35 L385.73 36.35 L385.86 35.35 L385.99 34.35 L386.12 33.35 L386.25 32.34 L386.38 31.34 L386.52 30.34 L386.65 29.34 L386.78 28.34 L386.91 27.34 L387.04 26.33 L387.17 25.33 L387.30 24.33 L387.43 23.33 L387.56 22.33 L387.68 21.33 L387.81 20.33 L387.94 19.32 L388.07 18.32 L388.20 17.32 L388.33 16.32 L388.46 15.32 L388.58 14.32 L388.71 13.31 L388.84 12.31 L388.96 11.31 L389.09 10.31 L389.22 9.31 L389.34 8.31 L389.47 7.30 L389.60 6.30 L389.72 5.30 L389.85 4.30 L389.97 3.30 L390.10 2.30 L390.22 1.30 L390.35 0.29 L390.47 -0.71 "
       style="fill:none;stroke:#000000;stroke-width:1;"
       id="path13" />
  </g>
  <rect
     style="fill:#ffffff;fill-rule:evenodd;stroke:none;stroke-width:1;stroke-dasharray:6, 6;stroke-miterlimit:4;stroke-dashoffset:0;fill-opacity:1"
     id="rect848"
     width="65.319374"
     height="36.623051"
     x="329.15555"
     y="310.03165" />
  <rect
     style="fill:#ffffff;fill-opacity:1;fill-rule:evenodd;stroke:none;stroke-width:1.01038;stroke-miterlimit:4;stroke-dasharray:6.06225, 6.06225;stroke-dashoffset:0"
     id="rect852"
     width="88.542664"
     height="55.786812"
     x="239.66882"
     y="310.35492" />
  <rect
     style="fill:#ffffff;fill-opacity:1;fill-rule:evenodd;stroke:none;stroke-width:1;stroke-miterlimit:4;stroke-dasharray:6, 6;stroke-dashoffset:0"
     id="rect858"
     width="47.604736"
     height="137.66241"
     x="369.01917"
     y="171.22751" />
  <rect
     style="fill:#ffffff;fill-opacity:1;fill-rule:evenodd;stroke:none;stroke-width:1;stroke-miterlimit:4;stroke-dasharray:6, 6;stroke-dashoffset:0"
     id="rect860"
     width="42.820129"
     height="194.00856"
     x="401.84799"
     y="-5.5336084" />
  <rect
     style="fill:#ffffff;fill-opacity:1;fill-rule:evenodd;stroke:none;stroke-width:1;stroke-miterlimit:4;stroke-dasharray:6, 6;stroke-dashoffset:0"
     id="rect862"
     width="94.92688"
     height="113.96523"
     x="199.23607"
     y="194.87404" />
  <rect
     style="fill:#ffffff;fill-opacity:1;fill-rule:evenodd;stroke:none;stroke-width:1;stroke-miterlimit:4;stroke-dasharray:6, 6;stroke-dashoffset:0"
     id="rect864"
     width="56.51218"
     height="205.92255"
     x="200.5488"
     y="-2.9182551" />
  <path
     style="fill:none;stroke:#000000;stroke-width:1;stroke-linecap:butt;stroke-linejoin:miter;stroke-opacity:1;stroke-miterlimit:4;stroke-dasharray:6,6;stroke-dashoffset:0"
     d="m 299.11665,208.41216 66.58643,-40.04447"
     id="path845" />
</svg>
