<?xml version="1.0" encoding="UTF-8" standalone="no"?>
<svg
   xmlns:dc="http://purl.org/dc/elements/1.1/"
   xmlns:cc="http://creativecommons.org/ns#"
   xmlns:rdf="http://www.w3.org/1999/02/22-rdf-syntax-ns#"
   xmlns:svg="http://www.w3.org/2000/svg"
   xmlns="http://www.w3.org/2000/svg"
   xmlns:sodipodi="http://sodipodi.sourceforge.net/DTD/sodipodi-0.dtd"
   xmlns:inkscape="http://www.inkscape.org/namespaces/inkscape"
   viewBox="0 0 650 400"
   version="1.1"
   id="svg15"
   sodipodi:docname="partition_sum.svg"
   inkscape:version="1.0.2 (1.0.2+r75+1)">
  <metadata
     id="metadata21">
    <rdf:RDF>
      <cc:Work
         rdf:about="">
        <dc:format>image/svg+xml</dc:format>
        <dc:type
           rdf:resource="http://purl.org/dc/dcmitype/StillImage" />
        <dc:title></dc:title>
      </cc:Work>
    </rdf:RDF>
  </metadata>
  <defs
     id="defs19" />
  <sodipodi:namedview
     pagecolor="#ffffff"
     bordercolor="#666666"
     borderopacity="1"
     objecttolerance="10"
     gridtolerance="10"
     guidetolerance="10"
     inkscape:pageopacity="0"
     inkscape:pageshadow="2"
     inkscape:window-width="1848"
     inkscape:window-height="1016"
     id="namedview17"
     showgrid="false"
     showguides="false"
     inkscape:guide-bbox="true"
     inkscape:zoom="1.4305314"
     inkscape:cx="323.86479"
     inkscape:cy="197.92551"
     inkscape:window-x="72"
     inkscape:window-y="27"
     inkscape:window-maximized="1"
     inkscape:current-layer="svg15"
     inkscape:document-rotation="0">
    <sodipodi:guide
       position="387.987,163.18277"
       orientation="1,0"
       id="guide870" />
    <sodipodi:guide
       position="400.76922,155.47067"
       orientation="0,-1"
       id="guide872" />
    <sodipodi:guide
       position="465.59753,155.47067"
       orientation="1,0"
       id="guide878" />
    <sodipodi:guide
       position="497.11,74.87"
       orientation="0,-1"
       id="guide882" />
    <sodipodi:guide
       position="545.20913,163.35551"
       orientation="1,0"
       id="guide884" />
  </sodipodi:namedview>
  <clipPath
     id="box">
    <rect
       x="0"
       y="0"
       width="650"
       height="400"
       style="fill:none;stroke:none;"
       id="rect2" />
  </clipPath>
  <g
     clip-path="url(#box)"
     id="g13">
    <rect
       x="0.00"
       y="0.00"
       width="650.00"
       height="400.00"
       style="fill:#FFFFFF;stroke:none;"
       id="rect5" />
    <path
       d="M353.68 0.00 L353.68 400.00 "
       style="fill:none;stroke:#000000;stroke-width:1;"
       id="path7" />
    <path
       d="M0.00 236.67 L650.00 236.67 "
       style="fill:none;stroke:#000000;stroke-width:1;"
       id="path9" />
    <path
       d="M78.67 400.01 L78.67 400.00 L78.75 399.00 L78.84 398.00 L78.92 397.00 L79.00 396.01 L79.08 395.01 L79.17 394.01 L79.25 393.01 L79.33 392.01 L79.42 391.02 L79.50 390.02 L79.58 389.02 L79.67 388.02 L79.75 387.02 L79.83 386.03 L79.92 385.03 L80.00 384.03 L80.09 383.03 L80.17 382.03 L80.26 381.04 L80.34 380.04 L80.43 379.04 L80.51 378.04 L80.60 377.04 L80.69 376.05 L80.77 375.05 L80.86 374.05 L80.94 373.05 L81.03 372.06 L81.12 371.06 L81.20 370.06 L81.29 369.06 L81.38 368.06 L81.47 367.07 L81.55 366.07 L81.64 365.07 L81.73 364.07 L81.82 363.07 L81.91 362.08 L82.00 361.08 L82.08 360.08 L82.17 359.08 L82.26 358.08 L82.35 357.09 L82.44 356.09 L82.53 355.09 L82.62 354.09 L82.71 353.10 L82.80 352.10 L82.89 351.10 L82.98 350.10 L83.07 349.10 L83.17 348.11 L83.26 347.11 L83.35 346.11 L83.44 345.11 L83.53 344.12 L83.62 343.12 L83.72 342.12 L83.81 341.12 L83.90 340.13 L84.00 339.13 L84.09 338.13 L84.18 337.13 L84.28 336.13 L84.37 335.14 L84.46 334.14 L84.56 333.14 L84.65 332.14 L84.75 331.15 L84.84 330.15 L84.94 329.15 L85.03 328.15 L85.13 327.16 L85.23 326.16 L85.32 325.16 L85.42 324.16 L85.51 323.17 L85.61 322.17 L85.71 321.17 L85.81 320.17 L85.90 319.18 L86.00 318.18 L86.10 317.18 L86.20 316.18 L86.30 315.19 L86.40 314.19 L86.49 313.19 L86.59 312.19 L86.69 311.20 L86.79 310.20 L86.89 309.20 L86.99 308.20 L87.09 307.21 L87.20 306.21 L87.30 305.21 L87.40 304.21 L87.50 303.22 L87.60 302.22 L87.70 301.22 L87.81 300.22 L87.91 299.23 L88.01 298.23 L88.12 297.23 L88.22 296.23 L88.32 295.24 L88.43 294.24 L88.53 293.24 L88.64 292.25 L88.74 291.25 L88.85 290.25 L88.95 289.25 L89.06 288.26 L89.16 287.26 L89.27 286.26 L89.38 285.26 L89.48 284.27 L89.59 283.27 L89.70 282.27 L89.81 281.28 L89.92 280.28 L90.02 279.28 L90.13 278.28 L90.24 277.29 L90.35 276.29 L90.46 275.29 L90.57 274.30 L90.68 273.30 L90.79 272.30 L90.90 271.31 L91.02 270.31 L91.13 269.31 L91.24 268.31 L91.35 267.32 L91.46 266.32 L91.58 265.32 L91.69 264.33 L91.81 263.33 L91.92 262.33 L92.03 261.34 L92.15 260.34 L92.26 259.34 L92.38 258.35 L92.50 257.35 L92.61 256.35 L92.73 255.35 L92.85 254.36 L92.96 253.36 L93.08 252.36 L93.20 251.37 L93.32 250.37 L93.44 249.37 L93.56 248.38 L93.68 247.38 L93.80 246.38 L93.92 245.39 L94.04 244.39 L94.16 243.39 L94.28 242.40 L94.40 241.40 L94.53 240.40 L94.65 239.41 L94.77 238.41 L94.90 237.41 L95.02 236.42 L95.15 235.42 L95.27 234.43 L95.40 233.43 L95.52 232.43 L95.65 231.44 L95.78 230.44 L95.90 229.44 L96.03 228.45 L96.16 227.45 L96.29 226.45 L96.42 225.46 L96.55 224.46 L96.68 223.47 L96.81 222.47 L96.94 221.47 L97.07 220.48 L97.21 219.48 L97.34 218.48 L97.47 217.49 L97.61 216.49 L97.74 215.50 L97.88 214.50 L98.01 213.50 L98.15 212.51 L98.28 211.51 L98.42 210.52 L98.56 209.52 L98.70 208.52 L98.83 207.53 L98.97 206.53 L99.11 205.54 L99.25 204.54 L99.40 203.54 L99.54 202.55 L99.68 201.55 L99.82 200.56 L99.97 199.56 L100.11 198.57 L100.25 197.57 L100.40 196.57 L100.55 195.58 L100.69 194.58 L100.84 193.59 L100.99 192.59 L101.14 191.60 L101.28 190.60 L101.43 189.61 L101.59 188.61 L101.74 187.61 L101.89 186.62 L102.04 185.62 L102.19 184.63 L102.35 183.63 L102.50 182.64 L102.66 181.64 L102.82 180.65 L102.97 179.65 L103.13 178.66 L103.29 177.66 L103.45 176.67 L103.61 175.67 L103.77 174.68 L103.93 173.68 L104.10 172.69 L104.26 171.69 L104.42 170.70 L104.59 169.70 L104.76 168.71 L104.92 167.71 L105.09 166.72 L105.26 165.73 L105.43 164.73 L105.60 163.74 L105.77 162.74 L105.94 161.75 L106.12 160.75 L106.29 159.76 L106.47 158.77 L106.65 157.77 L106.82 156.78 L107.00 155.78 L107.18 154.79 L107.36 153.79 L107.54 152.80 L107.73 151.81 L107.91 150.81 L108.10 149.82 L108.28 148.83 L108.47 147.83 L108.66 146.84 L108.85 145.85 L109.04 144.85 L109.24 143.86 L109.43 142.86 L109.62 141.87 L109.82 140.88 L110.02 139.89 L110.22 138.89 L110.42 137.90 L110.62 136.91 L110.83 135.91 L111.03 134.92 L111.24 133.93 L111.45 132.94 L111.65 131.94 L111.87 130.95 L112.08 129.96 L112.29 128.97 L112.51 127.97 L112.73 126.98 L112.95 125.99 L113.17 125.00 L113.39 124.01 L113.62 123.01 L113.84 122.02 L114.07 121.03 L114.30 120.04 L114.54 119.05 L114.77 118.06 L115.01 117.07 L115.25 116.08 L115.49 115.09 L115.73 114.10 L115.98 113.10 L116.23 112.11 L116.48 111.12 L116.73 110.13 L116.99 109.14 L117.25 108.15 L117.51 107.17 L117.77 106.18 L118.04 105.19 L118.31 104.20 L118.58 103.21 L118.86 102.22 L119.14 101.23 L119.42 100.24 L119.71 99.26 L120.00 98.27 L120.29 97.28 L120.58 96.29 L120.89 95.31 L121.19 94.32 L121.50 93.33 L121.81 92.35 L122.13 91.36 L122.45 90.38 L122.78 89.39 L123.11 88.41 L123.44 87.42 L123.78 86.44 L124.13 85.45 L124.48 84.47 L124.84 83.49 L125.21 82.50 L125.58 81.52 L125.96 80.54 L126.35 79.56 L126.74 78.58 L127.14 77.60 L127.55 76.62 L127.97 75.64 L128.40 74.67 L128.83 73.69 L129.28 72.72 L129.74 71.74 L130.21 70.77 L130.70 69.79 L131.20 68.82 L131.71 67.85 L132.24 66.89 L132.79 65.92 L133.35 64.96 L133.94 63.99 L134.55 63.03 L135.19 62.08 L135.85 61.12 L136.55 60.17 L137.28 59.23 L138.06 58.29 L138.89 57.36 L139.77 56.43 L140.73 55.52 L141.78 54.62 L142.95 53.74 L144.27 52.89 L145.83 52.08 L147.76 51.36 L149.76 50.94 L151.76 50.82 L153.76 50.99 L155.76 51.43 L157.76 52.13 L159.76 53.08 L161.76 54.26 L163.45 55.43 L164.90 56.55 L166.20 57.64 L167.39 58.71 L168.50 59.76 L169.55 60.81 L170.55 61.86 L171.51 62.90 L172.44 63.93 L173.33 64.96 L174.20 65.99 L175.04 67.01 L175.87 68.04 L176.67 69.06 L177.46 70.08 L178.23 71.10 L178.99 72.11 L179.73 73.13 L180.46 74.15 L181.19 75.16 L181.90 76.17 L182.60 77.19 L183.29 78.20 L183.98 79.21 L184.66 80.22 L185.33 81.23 L185.99 82.24 L186.65 83.25 L187.30 84.26 L187.95 85.26 L188.59 86.27 L189.23 87.28 L189.86 88.29 L190.49 89.29 L191.11 90.30 L191.73 91.30 L192.35 92.31 L192.96 93.31 L193.57 94.32 L194.18 95.32 L194.79 96.33 L195.39 97.33 L195.99 98.34 L196.59 99.34 L197.18 100.34 L197.78 101.35 L198.37 102.35 L198.96 103.35 L199.55 104.35 L200.13 105.36 L200.72 106.36 L201.30 107.36 L201.89 108.36 L202.47 109.36 L203.05 110.36 L203.63 111.37 L204.21 112.37 L204.79 113.37 L205.37 114.37 L205.95 115.37 L206.52 116.37 L207.10 117.37 L207.68 118.37 L208.26 119.37 L208.83 120.37 L209.41 121.37 L209.99 122.37 L210.57 123.37 L211.15 124.37 L211.72 125.37 L212.30 126.37 L212.88 127.37 L213.46 128.36 L214.04 129.36 L214.63 130.36 L215.21 131.36 L215.79 132.36 L216.38 133.36 L216.96 134.35 L217.55 135.35 L218.14 136.35 L218.73 137.35 L219.32 138.34 L219.91 139.34 L220.50 140.34 L221.10 141.34 L221.70 142.33 L222.30 143.33 L222.90 144.33 L223.50 145.32 L224.10 146.32 L224.71 147.32 L225.32 148.31 L225.93 149.31 L226.55 150.30 L227.16 151.30 L227.78 152.30 L228.40 153.29 L229.03 154.29 L229.66 155.28 L230.29 156.28 L230.92 157.27 L231.56 158.27 L232.20 159.26 L232.84 160.26 L233.49 161.25 L234.14 162.24 L234.79 163.24 L235.45 164.23 L236.12 165.23 L236.78 166.22 L237.45 167.21 L238.13 168.21 L238.81 169.20 L239.50 170.19 L240.19 171.18 L240.88 172.18 L241.58 173.17 L242.29 174.16 L243.00 175.15 L243.72 176.14 L244.44 177.14 L245.18 178.13 L245.91 179.12 L246.66 180.11 L247.41 181.10 L248.17 182.09 L248.93 183.08 L249.71 184.07 L250.49 185.06 L251.28 186.05 L252.08 187.03 L252.89 188.02 L253.71 189.01 L254.54 190.00 L255.37 190.99 L256.22 191.97 L257.09 192.96 L257.96 193.94 L258.84 194.93 L259.74 195.92 L260.65 196.90 L261.58 197.88 L262.52 198.87 L263.48 199.85 L264.45 200.83 L265.44 201.82 L266.45 202.80 L267.48 203.78 L268.52 204.76 L269.59 205.74 L270.69 206.71 L271.80 207.69 L272.95 208.67 L274.12 209.64 L275.32 210.62 L276.55 211.59 L277.81 212.56 L279.12 213.53 L280.46 214.50 L281.85 215.47 L283.28 216.43 L284.76 217.40 L286.30 218.36 L287.90 219.32 L289.57 220.27 L291.32 221.23 L293.15 222.18 L295.08 223.12 L297.08 224.05 L299.08 224.91 L301.08 225.73 L303.08 226.49 L305.08 227.20 L307.08 227.86 L309.08 228.48 L311.08 229.05 L313.08 229.59 L315.08 230.09 L317.08 230.55 L319.08 230.97 L321.08 231.37 L323.08 231.74 L325.08 232.08 L327.08 232.40 L329.08 232.71 L331.08 232.99 L333.08 233.26 L335.08 233.51 L337.08 233.76 L339.08 234.00 L341.08 234.24 L343.08 234.47 L345.08 234.71 L347.08 234.95 L349.08 235.20 L351.08 235.45 L353.08 235.72 L355.08 236.00 L357.08 236.30 L359.08 236.61 L361.08 236.95 L363.08 237.31 L365.08 237.70 L367.08 238.11 L369.08 238.56 L371.08 239.03 L373.08 239.54 L375.08 240.09 L377.08 240.67 L379.08 241.29 L381.08 241.96 L383.08 242.66 L385.08 243.41 L387.08 244.20 L389.08 245.04 L391.08 245.93 L393.08 246.86 L395.08 247.85 L397.08 248.88 L399.02 249.93 L400.87 250.97 L402.64 252.01 L404.35 253.05 L405.99 254.08 L407.58 255.12 L409.11 256.15 L410.61 257.17 L412.06 258.20 L413.47 259.22 L414.85 260.25 L416.20 261.27 L417.52 262.29 L418.81 263.31 L420.08 264.33 L421.33 265.35 L422.55 266.36 L423.76 267.38 L424.94 268.39 L426.11 269.41 L427.27 270.42 L428.40 271.43 L429.53 272.44 L430.64 273.45 L431.74 274.46 L432.83 275.47 L433.90 276.48 L434.97 277.49 L436.03 278.50 L437.08 279.51 L438.13 280.51 L439.16 281.52 L440.19 282.53 L441.21 283.53 L442.23 284.54 L443.25 285.54 L444.26 286.54 L445.27 287.55 L446.27 288.55 L447.27 289.55 L448.27 290.55 L449.27 291.55 L450.27 292.55 L451.26 293.55 L452.26 294.55 L453.26 295.55 L454.26 296.55 L455.26 297.54 L456.27 298.54 L457.28 299.53 L458.30 300.53 L459.32 301.52 L460.34 302.52 L461.38 303.51 L462.42 304.50 L463.47 305.49 L464.53 306.48 L465.60 307.47 L466.69 308.45 L467.79 309.44 L468.91 310.42 L470.05 311.40 L471.21 312.38 L472.40 313.36 L473.61 314.33 L474.86 315.30 L476.14 316.27 L477.47 317.23 L478.86 318.19 L480.30 319.13 L481.83 320.07 L483.45 321.00 L485.19 321.91 L487.11 322.80 L489.11 323.59 L491.11 324.22 L493.11 324.70 L495.11 325.01 L497.11 325.13 L499.11 325.05 L501.11 324.77 L503.11 324.27 L505.11 323.54 L507.11 322.56 L509.11 321.31 L510.72 320.12 L512.07 318.97 L513.24 317.86 L514.31 316.77 L515.28 315.70 L516.18 314.63 L517.03 313.57 L517.83 312.51 L518.58 311.46 L519.30 310.42 L519.99 309.37 L520.65 308.34 L521.29 307.30 L521.90 306.26 L522.49 305.23 L523.06 304.20 L523.62 303.17 L524.16 302.14 L524.68 301.11 L525.19 300.09 L525.69 299.06 L526.17 298.04 L526.64 297.01 L527.11 295.99 L527.56 294.97 L528.00 293.95 L528.44 292.93 L528.86 291.91 L529.28 290.89 L529.69 289.87 L530.09 288.85 L530.48 287.83 L530.87 286.82 L531.25 285.80 L531.63 284.79 L532.00 283.77 L532.36 282.75 L532.72 281.74 L533.07 280.72 L533.42 279.71 L533.76 278.70 L534.10 277.68 L534.43 276.67 L534.76 275.65 L535.08 274.64 L535.40 273.63 L535.72 272.62 L536.03 271.60 L536.34 270.59 L536.64 269.58 L536.94 268.57 L537.24 267.56 L537.54 266.55 L537.83 265.54 L538.12 264.52 L538.40 263.51 L538.68 262.50 L538.96 261.49 L539.24 260.48 L539.51 259.47 L539.78 258.46 L540.05 257.45 L540.31 256.44 L540.58 255.43 L540.84 254.42 L541.09 253.42 L541.35 252.41 L541.60 251.40 L541.85 250.39 L542.10 249.38 L542.35 248.37 L542.59 247.36 L542.84 246.35 L543.08 245.35 L543.31 244.34 L543.55 243.33 L543.79 242.32 L544.02 241.31 L544.25 240.31 L544.48 239.30 L544.71 238.29 L544.93 237.28 L545.15 236.27 L545.38 235.27 L545.60 234.26 L545.82 233.25 L546.03 232.25 L546.25 231.24 L546.46 230.23 L546.68 229.22 L546.89 228.22 L547.10 227.21 L547.31 226.20 L547.51 225.20 L547.72 224.19 L547.92 223.18 L548.13 222.18 L548.33 221.17 L548.53 220.16 L548.73 219.16 L548.93 218.15 L549.12 217.15 L549.32 216.14 L549.51 215.13 L549.70 214.13 L549.90 213.12 L550.09 212.12 L550.28 211.11 L550.46 210.10 L550.65 209.10 L550.84 208.09 L551.02 207.09 L551.21 206.08 L551.39 205.08 L551.57 204.07 L551.75 203.06 L551.93 202.06 L552.11 201.05 L552.29 200.05 L552.47 199.04 L552.65 198.04 L552.82 197.03 L553.00 196.03 L553.17 195.02 L553.34 194.02 L553.51 193.01 L553.68 192.01 L553.85 191.00 L554.02 190.00 L554.19 188.99 L554.36 187.99 L554.53 186.98 L554.69 185.98 L554.86 184.97 L555.02 183.97 L555.18 182.96 L555.35 181.96 L555.51 180.95 L555.67 179.95 L555.83 178.94 L555.99 177.94 L556.15 176.93 L556.31 175.93 L556.46 174.93 L556.62 173.92 L556.78 172.92 L556.93 171.91 L557.09 170.91 L557.24 169.90 L557.39 168.90 L557.55 167.89 L557.70 166.89 L557.85 165.89 L558.00 164.88 L558.15 163.88 L558.30 162.87 L558.45 161.87 L558.60 160.86 L558.74 159.86 L558.89 158.86 L559.04 157.85 L559.18 156.85 L559.33 155.84 L559.47 154.84 L559.62 153.84 L559.76 152.83 L559.90 151.83 L560.05 150.82 L560.19 149.82 L560.33 148.82 L560.47 147.81 L560.61 146.81 L560.75 145.81 L560.89 144.80 L561.03 143.80 L561.17 142.79 L561.30 141.79 L561.44 140.79 L561.58 139.78 L561.71 138.78 L561.85 137.78 L561.98 136.77 L562.12 135.77 L562.25 134.76 L562.38 133.76 L562.52 132.76 L562.65 131.75 L562.78 130.75 L562.91 129.75 L563.05 128.74 L563.18 127.74 L563.31 126.74 L563.44 125.73 L563.57 124.73 L563.69 123.73 L563.82 122.72 L563.95 121.72 L564.08 120.72 L564.21 119.71 L564.33 118.71 L564.46 117.71 L564.58 116.70 L564.71 115.70 L564.83 114.70 L564.96 113.69 L565.08 112.69 L565.21 111.69 L565.33 110.68 L565.45 109.68 L565.58 108.68 L565.70 107.67 L565.82 106.67 L565.94 105.67 L566.06 104.66 L566.18 103.66 L566.31 102.66 L566.43 101.65 L566.54 100.65 L566.66 99.65 L566.78 98.65 L566.90 97.64 L567.02 96.64 L567.14 95.64 L567.25 94.63 L567.37 93.63 L567.49 92.63 L567.61 91.62 L567.72 90.62 L567.84 89.62 L567.95 88.62 L568.07 87.61 L568.18 86.61 L568.30 85.61 L568.41 84.60 L568.52 83.60 L568.64 82.60 L568.75 81.60 L568.86 80.59 L568.98 79.59 L569.09 78.59 L569.20 77.58 L569.31 76.58 L569.42 75.58 L569.53 74.58 L569.64 73.57 L569.75 72.57 L569.86 71.57 L569.97 70.56 L570.08 69.56 L570.19 68.56 L570.30 67.56 L570.41 66.55 L570.52 65.55 L570.63 64.55 L570.73 63.55 L570.84 62.54 L570.95 61.54 L571.05 60.54 L571.16 59.54 L571.27 58.53 L571.37 57.53 L571.48 56.53 L571.58 55.52 L571.69 54.52 L571.79 53.52 L571.90 52.52 L572.00 51.51 L572.11 50.51 L572.21 49.51 L572.31 48.51 L572.42 47.50 L572.52 46.50 L572.62 45.50 L572.73 44.50 L572.83 43.49 L572.93 42.49 L573.03 41.49 L573.13 40.49 L573.23 39.48 L573.34 38.48 L573.44 37.48 L573.54 36.48 L573.64 35.47 L573.74 34.47 L573.84 33.47 L573.94 32.47 L574.04 31.47 L574.13 30.46 L574.23 29.46 L574.33 28.46 L574.43 27.46 L574.53 26.45 L574.63 25.45 L574.72 24.45 L574.82 23.45 L574.92 22.44 L575.02 21.44 L575.11 20.44 L575.21 19.44 L575.31 18.44 L575.40 17.43 L575.50 16.43 L575.59 15.43 L575.69 14.43 L575.78 13.42 L575.88 12.42 L575.97 11.42 L576.07 10.42 L576.16 9.41 L576.26 8.41 L576.35 7.41 L576.44 6.41 L576.54 5.41 L576.63 4.40 L576.72 3.40 L576.82 2.40 L576.91 1.40 L577.00 0.40 L577.10 -0.61 "
       style="fill:none;stroke:#000000;stroke-width:1;"
       id="path11" />
  </g>
  <rect
     style="fill:#646464;fill-rule:evenodd;stroke:#000000;stroke-width:0.931;stroke-miterlimit:4;stroke-dasharray:none;stroke-dashoffset:0;stroke-opacity:1;fill-opacity:0.5"
     id="rect850"
     width="46.965733"
     height="182.20697"
     x="94.814262"
     y="54.619999" />
  <rect
     style="fill:#646464;fill-rule:evenodd;stroke:#000000;stroke-width:1;stroke-miterlimit:4;stroke-dasharray:none;stroke-dashoffset:0;stroke-opacity:1;fill-opacity:0.69999999"
     id="rect854"
     width="68.662361"
     height="112.87426"
     x="141.78"
     y="123.95271" />
  <rect
     style="fill:#646464;fill-rule:evenodd;stroke:#000000;stroke-width:1;stroke-miterlimit:4;stroke-dasharray:none;stroke-dashoffset:0;stroke-opacity:1;fill-opacity:0.5"
     id="rect860"
     width="68.662354"
     height="73.132713"
     x="141.78"
     y="50.82" />
  <rect
     style="fill:#646464;fill-opacity:0.69999999;fill-rule:evenodd;stroke:#000000;stroke-width:0.931;stroke-miterlimit:4;stroke-dasharray:none;stroke-dashoffset:0;stroke-opacity:1"
     id="rect862"
     width="54.190525"
     height="35.879269"
     x="210.44235"
     y="200.94769" />
  <rect
     style="fill:#646464;fill-opacity:0.5;fill-rule:evenodd;stroke:#000000;stroke-width:0.931;stroke-miterlimit:4;stroke-dasharray:none;stroke-dashoffset:0;stroke-opacity:1"
     id="rect864"
     width="54.190521"
     height="76.99498"
     x="210.44235"
     y="123.95271" />
  <rect
     style="fill:#646464;fill-opacity:0.5;fill-rule:evenodd;stroke:#000000;stroke-width:0.931;stroke-miterlimit:4;stroke-dasharray:none;stroke-dashoffset:0;stroke-opacity:1"
     id="rect866"
     width="123.35413"
     height="35.86953"
     x="264.63287"
     y="200.94769" />
  <rect
     style="fill:#646464;fill-opacity:0.69999999;fill-rule:evenodd;stroke:#000000;stroke-width:0.931;stroke-miterlimit:4;stroke-dasharray:none;stroke-dashoffset:0;stroke-opacity:1"
     id="rect874"
     width="123.35413"
     height="7.7023644"
     x="264.63287"
     y="236.82697" />
  <rect
     style="fill:#646464;fill-opacity:0.5;fill-rule:evenodd;stroke:#000000;stroke-width:0.931;stroke-miterlimit:4;stroke-dasharray:none;stroke-dashoffset:0;stroke-opacity:1"
     id="rect876"
     width="77.610519"
     height="7.7023644"
     x="387.987"
     y="236.82697" />
  <rect
     style="fill:#646464;fill-opacity:0.69999999;fill-rule:evenodd;stroke:#000000;stroke-width:0.931;stroke-miterlimit:4;stroke-dasharray:none;stroke-dashoffset:0;stroke-opacity:1"
     id="rect880"
     width="77.610527"
     height="62.934795"
     x="387.987"
     y="244.52933" />
  <rect
     style="fill:#646464;fill-opacity:0.7;fill-rule:evenodd;stroke:#000000;stroke-width:0.931;stroke-miterlimit:4;stroke-dasharray:none;stroke-dashoffset:0;stroke-opacity:1"
     id="rect886"
     width="79.611595"
     height="88.303032"
     x="465.59753"
     y="236.82697" />
</svg>
