<?xml version="1.0" encoding="UTF-8" standalone="no"?>
<svg
   xmlns:dc="http://purl.org/dc/elements/1.1/"
   xmlns:cc="http://creativecommons.org/ns#"
   xmlns:rdf="http://www.w3.org/1999/02/22-rdf-syntax-ns#"
   xmlns:svg="http://www.w3.org/2000/svg"
   xmlns="http://www.w3.org/2000/svg"
   xmlns:sodipodi="http://sodipodi.sourceforge.net/DTD/sodipodi-0.dtd"
   xmlns:inkscape="http://www.inkscape.org/namespaces/inkscape"
   viewBox="0 0 650 400"
   version="1.1"
   id="svg15"
   sodipodi:docname="x_squared_sin_reciprocal.svg"
   inkscape:version="1.0.2 (1.0.2+r75+1)">
  <metadata
     id="metadata21">
    <rdf:RDF>
      <cc:Work
         rdf:about="">
        <dc:format>image/svg+xml</dc:format>
        <dc:type
           rdf:resource="http://purl.org/dc/dcmitype/StillImage" />
        <dc:title></dc:title>
      </cc:Work>
    </rdf:RDF>
  </metadata>
  <defs
     id="defs19" />
  <sodipodi:namedview
     pagecolor="#ffffff"
     bordercolor="#666666"
     borderopacity="1"
     objecttolerance="10"
     gridtolerance="10"
     guidetolerance="10"
     inkscape:pageopacity="0"
     inkscape:pageshadow="2"
     inkscape:window-width="1848"
     inkscape:window-height="1016"
     id="namedview17"
     showgrid="false"
     inkscape:zoom="2.0230769"
     inkscape:cx="325"
     inkscape:cy="200"
     inkscape:window-x="72"
     inkscape:window-y="27"
     inkscape:window-maximized="1"
     inkscape:current-layer="svg15" />
  <clipPath
     id="box">
    <rect
       x="0"
       y="0"
       width="650"
       height="400"
       style="fill:none;stroke:none;"
       id="rect2" />
  </clipPath>
  <g
     clip-path="url(#box)"
     id="g13">
    <rect
       x="0.00"
       y="0.00"
       width="650.00"
       height="400.00"
       style="fill:#FFFFFF;stroke:none;"
       id="rect5" />
    <path
       d="M325.00 0.00 L325.00 400.00 "
       style="fill:none;stroke:#000000;stroke-width:1;"
       id="path7" />
    <path
       d="M0.00 203.24 L650.00 203.24 "
       style="fill:none;stroke:#000000;stroke-width:1;"
       id="path9" />
    <path
       d="M-10.00 200.00 L-0.25 267.30 L0.75 266.02 L1.53 265.00 L2.30 263.98 L3.05 262.96 L3.78 261.94 L4.50 260.92 L5.21 259.91 L5.91 258.89 L6.60 257.87 L7.28 256.86 L7.94 255.85 L8.60 254.83 L9.25 253.82 L9.90 252.81 L10.53 251.80 L11.16 250.79 L11.78 249.78 L12.39 248.77 L13.00 247.76 L13.61 246.75 L14.20 245.74 L14.80 244.73 L15.38 243.72 L15.97 242.72 L16.54 241.71 L17.12 240.70 L17.69 239.70 L18.26 238.69 L18.82 237.68 L19.38 236.68 L19.94 235.67 L20.49 234.67 L21.04 233.66 L21.59 232.66 L22.14 231.65 L22.68 230.65 L23.22 229.65 L23.76 228.64 L24.30 227.64 L24.83 226.64 L25.37 225.63 L25.90 224.63 L26.43 223.63 L26.96 222.63 L27.49 221.63 L28.02 220.63 L28.55 219.62 L29.08 218.62 L29.61 217.62 L30.13 216.62 L30.66 215.62 L31.19 214.62 L31.71 213.62 L32.24 212.62 L32.77 211.62 L33.29 210.63 L33.82 209.63 L34.35 208.63 L34.88 207.63 L35.41 206.63 L35.94 205.64 L36.48 204.64 L37.01 203.64 L37.55 202.65 L38.09 201.65 L38.63 200.65 L39.17 199.66 L39.72 198.66 L40.27 197.67 L40.82 196.67 L41.38 195.68 L41.93 194.69 L42.50 193.69 L43.06 192.70 L43.63 191.71 L44.21 190.72 L44.79 189.73 L45.37 188.74 L45.96 187.75 L46.56 186.76 L47.17 185.77 L47.78 184.78 L48.40 183.80 L49.02 182.81 L49.66 181.83 L50.31 180.84 L50.96 179.86 L51.63 178.88 L52.31 177.90 L53.01 176.92 L53.72 175.94 L54.44 174.97 L55.19 173.99 L55.96 173.02 L56.75 172.06 L57.56 171.09 L58.41 170.13 L59.29 169.18 L60.21 168.22 L61.18 167.28 L62.21 166.34 L63.30 165.42 L64.49 164.51 L65.79 163.62 L67.26 162.77 L68.97 161.96 L70.97 161.31 L72.97 160.96 L74.97 160.93 L76.97 161.22 L78.97 161.84 L80.97 162.78 L82.97 164.04 L84.55 165.26 L85.85 166.41 L86.97 167.51 L88.00 168.60 L88.94 169.66 L89.82 170.72 L90.66 171.77 L91.46 172.81 L92.22 173.85 L92.96 174.89 L93.67 175.92 L94.36 176.95 L95.03 177.97 L95.68 179.00 L96.32 180.02 L96.94 181.04 L97.56 182.05 L98.16 183.07 L98.75 184.09 L99.34 185.10 L99.91 186.11 L100.48 187.12 L101.05 188.13 L101.60 189.14 L102.16 190.15 L102.71 191.16 L103.25 192.16 L103.79 193.17 L104.33 194.17 L104.87 195.17 L105.40 196.18 L105.93 197.18 L106.47 198.18 L107.00 199.18 L107.53 200.18 L108.06 201.18 L108.60 202.17 L109.13 203.17 L109.67 204.16 L110.21 205.16 L110.75 206.15 L111.30 207.14 L111.85 208.13 L112.41 209.12 L112.97 210.11 L113.54 211.10 L114.12 212.08 L114.70 213.07 L115.30 214.05 L115.91 215.03 L116.53 216.00 L117.16 216.98 L117.81 217.95 L118.49 218.92 L119.18 219.88 L119.90 220.84 L120.66 221.79 L121.45 222.73 L122.28 223.67 L123.18 224.59 L124.15 225.49 L125.23 226.37 L126.45 227.21 L127.91 227.97 L129.83 228.56 L131.83 228.66 L133.83 228.22 L135.83 227.24 L137.83 225.74 L139.16 224.46 L140.19 223.31 L141.10 222.21 L141.91 221.13 L142.68 220.07 L143.39 219.02 L144.07 217.97 L144.73 216.94 L145.36 215.90 L145.97 214.88 L146.56 213.85 L147.14 212.83 L147.71 211.82 L148.27 210.80 L148.82 209.79 L149.37 208.78 L149.91 207.78 L150.45 206.77 L150.98 205.77 L151.52 204.77 L152.05 203.77 L152.59 202.78 L153.13 201.79 L153.67 200.80 L154.22 199.81 L154.77 198.82 L155.34 197.84 L155.91 196.86 L156.50 195.89 L157.10 194.92 L157.73 193.96 L158.37 193.00 L159.05 192.06 L159.77 191.12 L160.53 190.19 L161.35 189.29 L162.26 188.41 L163.31 187.59 L164.56 186.84 L166.26 186.32 L168.26 186.43 L170.26 187.36 L172.26 189.07 L173.43 190.40 L174.31 191.55 L175.07 192.64 L175.77 193.71 L176.42 194.77 L177.04 195.81 L177.63 196.84 L178.21 197.87 L178.77 198.89 L179.32 199.90 L179.86 200.91 L180.40 201.91 L180.94 202.91 L181.47 203.91 L182.01 204.90 L182.56 205.88 L183.11 206.86 L183.68 207.83 L184.26 208.79 L184.87 209.75 L185.50 210.69 L186.18 211.62 L186.91 212.52 L187.71 213.39 L188.63 214.21 L189.76 214.93 L191.32 215.37 L193.32 214.92 L195.32 213.37 L196.61 211.84 L197.45 210.64 L198.16 209.54 L198.80 208.48 L199.39 207.43 L199.97 206.40 L200.52 205.38 L201.07 204.37 L201.60 203.37 L202.14 202.37 L202.68 201.39 L203.23 200.42 L203.80 199.46 L204.39 198.51 L205.01 197.58 L205.68 196.68 L206.42 195.82 L207.28 195.02 L208.37 194.37 L210.03 194.20 L212.03 195.37 L213.75 197.45 L214.57 198.73 L215.22 199.82 L215.81 200.87 L216.37 201.90 L216.91 202.91 L217.45 203.91 L217.99 204.89 L218.54 205.85 L219.11 206.79 L219.72 207.71 L220.39 208.58 L221.15 209.39 L222.09 210.06 L223.51 210.29 L225.51 209.00 L227.05 206.87 L227.78 205.63 L228.36 204.57 L228.91 203.54 L229.45 202.55 L229.99 201.58 L230.55 200.63 L231.14 199.73 L231.79 198.88 L232.56 198.12 L233.58 197.61 L235.57 198.40 L237.57 201.24 L238.28 202.52 L238.83 203.54 L239.37 204.52 L239.92 205.45 L240.51 206.33 L241.18 207.13 L242.02 207.74 L243.39 207.66 L245.39 205.28 L246.23 203.78 L246.79 202.74 L247.33 201.79 L247.89 200.89 L248.52 200.09 L249.31 199.49 L250.62 199.67 L252.62 202.44 L253.35 203.77 L253.89 204.72 L254.46 205.56 L255.14 206.25 L256.12 206.47 L258.12 204.11 L258.97 202.56 L259.51 201.65 L260.11 200.89 L260.90 200.45 L262.69 202.07 L263.79 204.06 L264.34 204.92 L264.98 205.55 L266.00 205.42 L268.00 202.25 L268.64 201.42 L269.39 201.13 L271.39 203.88 L272.12 204.88 L272.85 205.08 L274.85 202.17 L275.54 201.59 L276.72 202.66 L277.82 204.47 L278.43 204.72 L280.43 202.00 L281.16 202.16 L283.16 204.34 L284.08 202.89 L284.72 202.16 L285.59 202.93 L286.71 204.24 L287.57 203.05 L288.30 202.32 L289.29 203.71 L290.02 203.95 L292.02 203.63 L294.02 202.97 L296.02 202.89 L298.02 203.23 L300.02 203.66 L302.02 202.89 L304.02 203.11 L306.02 203.00 L308.02 203.34 L310.02 203.10 L312.02 203.36 L314.02 203.32 L316.02 203.26 L318.02 203.21 L320.02 203.23 L322.02 203.24 L324.02 203.24 L326.02 203.24 L328.02 203.24 L330.02 203.24 L332.02 203.25 L334.02 203.28 L336.02 203.17 L338.02 203.14 L340.02 203.40 L342.02 203.10 L344.02 203.48 L346.02 203.32 L348.02 203.61 L350.02 202.82 L352.02 203.31 L354.02 203.65 L356.02 203.57 L358.02 202.91 L360.02 202.50 L362.02 204.04 L363.32 202.24 L364.04 202.88 L365.18 204.35 L365.95 203.53 L366.90 202.10 L367.57 202.29 L369.57 204.49 L370.48 203.17 L371.16 202.07 L371.79 201.76 L373.79 204.57 L374.50 204.89 L376.50 202.02 L377.19 201.39 L378.31 202.12 L379.83 204.72 L380.42 205.28 L381.47 204.96 L383.47 201.67 L384.08 201.00 L384.99 200.92 L386.99 203.84 L387.67 204.99 L388.27 205.70 L389.11 206.04 L391.11 203.80 L392.00 202.16 L392.54 201.26 L393.15 200.50 L393.94 200.00 L395.53 200.91 L397.27 203.86 L397.87 204.91 L398.43 205.79 L399.07 206.56 L399.90 207.07 L401.52 206.35 L403.52 203.17 L404.15 202.01 L404.69 201.06 L405.27 200.18 L405.92 199.38 L406.73 198.76 L408.04 198.77 L410.04 200.98 L410.95 202.54 L411.53 203.61 L412.07 204.61 L412.61 205.57 L413.18 206.50 L413.79 207.37 L414.49 208.15 L415.39 208.76 L416.85 208.73 L418.85 206.77 L419.87 205.14 L420.50 204.03 L421.06 202.99 L421.60 201.98 L422.14 201.00 L422.69 200.05 L423.27 199.12 L423.89 198.23 L424.58 197.39 L425.42 196.66 L426.56 196.18 L428.56 196.85 L430.56 199.18 L431.41 200.55 L432.04 201.64 L432.61 202.69 L433.16 203.71 L433.70 204.71 L434.24 205.70 L434.79 206.67 L435.35 207.62 L435.93 208.56 L436.56 209.47 L437.24 210.35 L438.02 211.17 L438.97 211.89 L440.30 212.33 L442.30 211.76 L444.30 209.83 L445.34 208.40 L446.06 207.26 L446.70 206.19 L447.29 205.14 L447.86 204.11 L448.41 203.10 L448.95 202.09 L449.49 201.09 L450.03 200.10 L450.57 199.12 L451.12 198.15 L451.69 197.19 L452.29 196.24 L452.91 195.31 L453.58 194.39 L454.32 193.50 L455.14 192.66 L456.12 191.89 L457.39 191.28 L459.39 191.23 L461.39 192.29 L463.28 194.19 L464.28 195.49 L465.05 196.61 L465.73 197.68 L466.37 198.74 L466.97 199.78 L467.56 200.81 L468.12 201.83 L468.67 202.85 L469.22 203.86 L469.75 204.86 L470.29 205.86 L470.83 206.86 L471.37 207.85 L471.91 208.83 L472.46 209.81 L473.03 210.79 L473.60 211.76 L474.20 212.72 L474.82 213.67 L475.47 214.62 L476.15 215.55 L476.89 216.47 L477.69 217.37 L478.58 218.23 L479.62 219.04 L480.89 219.76 L482.68 220.21 L484.68 219.95 L486.68 218.91 L488.61 217.24 L489.76 215.95 L490.66 214.82 L491.45 213.73 L492.18 212.67 L492.87 211.61 L493.52 210.57 L494.14 209.54 L494.74 208.51 L495.33 207.48 L495.90 206.47 L496.46 205.45 L497.02 204.44 L497.56 203.43 L498.10 202.42 L498.64 201.42 L499.18 200.42 L499.71 199.42 L500.25 198.42 L500.78 197.42 L501.32 196.43 L501.86 195.44 L502.41 194.45 L502.97 193.46 L503.53 192.48 L504.10 191.50 L504.68 190.52 L505.28 189.55 L505.89 188.58 L506.52 187.61 L507.17 186.65 L507.84 185.69 L508.55 184.74 L509.29 183.80 L510.08 182.86 L510.92 181.94 L511.84 181.04 L512.86 180.17 L514.03 179.33 L515.42 178.57 L517.24 177.96 L519.24 177.81 L521.24 178.20 L523.24 179.10 L525.24 180.48 L526.69 181.77 L527.81 182.92 L528.78 184.02 L529.67 185.10 L530.49 186.16 L531.26 187.21 L531.99 188.26 L532.70 189.30 L533.37 190.33 L534.03 191.36 L534.67 192.38 L535.29 193.41 L535.90 194.43 L536.49 195.44 L537.08 196.46 L537.65 197.47 L538.22 198.48 L538.79 199.50 L539.34 200.50 L539.89 201.51 L540.44 202.52 L540.98 203.53 L541.52 204.53 L542.06 205.53 L542.59 206.54 L543.13 207.54 L543.66 208.54 L544.19 209.54 L544.72 210.54 L545.25 211.54 L545.79 212.53 L546.32 213.53 L546.86 214.53 L547.40 215.52 L547.94 216.52 L548.49 217.51 L549.03 218.50 L549.59 219.49 L550.15 220.48 L550.71 221.47 L551.28 222.46 L551.86 223.45 L552.44 224.43 L553.03 225.42 L553.64 226.40 L554.25 227.38 L554.87 228.36 L555.51 229.34 L556.16 230.32 L556.83 231.29 L557.51 232.26 L558.22 233.23 L558.94 234.20 L559.69 235.16 L560.47 236.12 L561.28 237.08 L562.13 238.03 L563.02 238.97 L563.97 239.91 L564.99 240.83 L566.08 241.74 L567.29 242.63 L568.64 243.49 L570.21 244.31 L572.14 245.03 L574.14 245.47 L576.14 245.58 L578.14 245.37 L580.14 244.85 L582.14 244.03 L584.14 242.91 L585.93 241.67 L587.37 240.51 L588.61 239.40 L589.73 238.32 L590.77 237.25 L591.74 236.19 L592.65 235.14 L593.53 234.10 L594.36 233.06 L595.17 232.03 L595.95 230.99 L596.70 229.97 L597.44 228.94 L598.16 227.92 L598.86 226.89 L599.54 225.87 L600.21 224.86 L600.87 223.84 L601.52 222.82 L602.16 221.81 L602.79 220.79 L603.41 219.78 L604.02 218.77 L604.62 217.76 L605.22 216.75 L605.81 215.74 L606.40 214.73 L606.98 213.72 L607.55 212.71 L608.12 211.70 L608.69 210.69 L609.25 209.69 L609.81 208.68 L610.36 207.68 L610.91 206.67 L611.46 205.67 L612.01 204.66 L612.55 203.66 L613.09 202.65 L613.63 201.65 L614.16 200.65 L614.70 199.64 L615.23 198.64 L615.77 197.64 L616.30 196.64 L616.83 195.63 L617.35 194.63 L617.88 193.63 L618.41 192.63 L618.94 191.63 L619.46 190.63 L619.99 189.63 L620.52 188.63 L621.04 187.63 L621.57 186.63 L622.10 185.63 L622.62 184.63 L623.15 183.63 L623.68 182.64 L624.21 181.64 L624.74 180.64 L625.28 179.64 L625.81 178.65 L626.34 177.65 L626.88 176.65 L627.42 175.66 L627.96 174.66 L628.50 173.66 L629.04 172.67 L629.59 171.67 L630.14 170.68 L630.69 169.68 L631.25 168.69 L631.80 167.69 L632.36 166.70 L632.93 165.70 L633.49 164.71 L634.06 163.72 L634.64 162.72 L635.22 161.73 L635.80 160.74 L636.39 159.75 L636.98 158.76 L637.58 157.76 L638.18 156.77 L638.79 155.78 L639.40 154.79 L640.02 153.80 L640.65 152.82 L641.28 151.83 L641.93 150.84 L642.57 149.85 L643.23 148.86 L643.90 147.88 L644.57 146.89 L645.26 145.91 L645.95 144.92 L646.66 143.94 L647.37 142.95 L648.10 141.97 L648.85 140.99 L649.60 140.01 "
       style="fill:none;stroke:#000000;stroke-width:1;"
       id="path11" />
  </g>
</svg>
